HIERARCHY
ROOT Hips
{
	OFFSET	0.00	0.00	0.00
	CHANNELS 6 Xposition Yposition Zposition Zrotation Xrotation Yrotation
	JOINT LeftUpLeg
	{
		OFFSET	 0.126116	-0.014019	-0.065224
		CHANNELS 3 Zrotation Xrotation Yrotation
		JOINT LeftLeg
		{
			OFFSET	 0.000000	 0.000000	 0.569914
			CHANNELS 3 Zrotation Xrotation Yrotation
			JOINT LeftFoot
			{
				OFFSET	 0.000000	 0.000000	 0.544423
				CHANNELS 3 Zrotation Xrotation Yrotation
				JOINT LeftToeBase
				{
					OFFSET	 0.000000	 0.000000	 0.207117
					CHANNELS 3 Zrotation Xrotation Yrotation
					End Site
					{
						OFFSET	 0.000000	 0.000000	 0.207117
					}
				}
			}
		}
	}
	JOINT RightUpLeg
	{
		OFFSET	-0.124023	-0.008373	-0.065224
		CHANNELS 3 Zrotation Xrotation Yrotation
		JOINT RightLeg
		{
			OFFSET	 0.000000	 0.000000	 0.570047
			CHANNELS 3 Zrotation Xrotation Yrotation
			JOINT RightFoot
			{
				OFFSET	 0.000000	 0.000000	 0.544354
				CHANNELS 3 Zrotation Xrotation Yrotation
				JOINT RightToeBase
				{
					OFFSET	 0.000000	 0.000000	 0.207540
					CHANNELS 3 Zrotation Xrotation Yrotation
					End Site
					{
						OFFSET	 0.000000	 0.000000	 0.207540
					}
				}
			}
		}
	}
	JOINT Spine
	{
		OFFSET	 0.000184	-0.007763	 0.117403
		CHANNELS 3 Zrotation Xrotation Yrotation
		JOINT Spine1
		{
			OFFSET	 0.000000	 0.000000	 0.137269
			CHANNELS 3 Zrotation Xrotation Yrotation
			JOINT Spine2
			{
				OFFSET	 0.000000	 0.000000	 0.156879
				CHANNELS 3 Zrotation Xrotation Yrotation
				JOINT LeftShoulder
				{
					OFFSET	 0.080501	-0.002496	 0.160144
					CHANNELS 3 Zrotation Xrotation Yrotation
					JOINT LeftArm
					{
						OFFSET	 0.000000	 0.000000	 0.164363
						CHANNELS 3 Zrotation Xrotation Yrotation
						JOINT LeftForeArm
						{
							OFFSET	 0.000000	 0.000000	 0.364576
							CHANNELS 3 Zrotation Xrotation Yrotation
							JOINT LeftHand
							{
								OFFSET	 0.000000	 0.000000	 0.360812
								CHANNELS 3 Zrotation Xrotation Yrotation
								JOINT LeftHandIndex1
								{
									OFFSET	 0.000000	 0.000000	 0.086006
									CHANNELS 3 Zrotation Xrotation Yrotation
									JOINT LeftHandIndex2
									{
										OFFSET	 0.000000	 0.000000	 0.047236
										CHANNELS 3 Zrotation Xrotation Yrotation
										JOINT LeftHandIndex3
										{
											OFFSET	-0.004284	-0.000551	 0.038166
											CHANNELS 3 Zrotation Xrotation Yrotation
											End Site
											{
												OFFSET	-0.004284	-0.000551	 0.038166
											}
										}
									}
								}
							}
						}
					}
				}
				JOINT Neck
				{
					OFFSET	 0.000000	 0.000000	 0.176489
					CHANNELS 3 Zrotation Xrotation Yrotation
					JOINT Head
					{
						OFFSET	 0.000000	-0.001747	 0.077940
						CHANNELS 3 Zrotation Xrotation Yrotation
						End Site
						{
							OFFSET	 0.000000	-0.001747	 0.077940
						}
					}
				}
				JOINT RightShoulder
				{
					OFFSET	-0.080363	 0.000306	 0.159706
					CHANNELS 3 Zrotation Xrotation Yrotation
					JOINT RightArm
					{
						OFFSET	 0.000000	 0.000000	 0.164196
						CHANNELS 3 Zrotation Xrotation Yrotation
						JOINT RightForeArm
						{
							OFFSET	 0.000000	 0.000000	 0.365611
							CHANNELS 3 Zrotation Xrotation Yrotation
							JOINT RightHand
							{
								OFFSET	 0.000000	 0.000000	 0.360648
								CHANNELS 3 Zrotation Xrotation Yrotation
								JOINT RightHandIndex1
								{
									OFFSET	 0.000000	 0.000000	 0.069977
									CHANNELS 3 Zrotation Xrotation Yrotation
									JOINT RightHandIndex2
									{
										OFFSET	 0.000000	 0.000000	 0.052305
										CHANNELS 3 Zrotation Xrotation Yrotation
										JOINT RightHandIndex3
										{
											OFFSET	 0.009002	-0.000782	 0.042196
											CHANNELS 3 Zrotation Xrotation Yrotation
											End Site
											{
												OFFSET	 0.009002	-0.000782	 0.042196
											}
										}
									}
								}
							}
						}
					}
				}
			}
		}
	}
}
MOTION
Frames:    13
Frame Time: 0.03333334
 0.012072	 0.038069	 1.215754	 179.709100	 0.523914	 0.628354	-9.646326	-10.270180	-177.998000	-1.633005	-40.877940	-7.036676	-167.992400	 83.228710	 154.157100	-2.226480	 45.259320	-0.426832	-0.302903	-9.339201	-179.755900	 6.586768	-39.768160	 9.511303	-170.515300	 83.666340	 179.732300	 2.352581	 33.906120	 0.124443	-7.124632	 5.473746	 1.245387	-1.202747	 10.794540	-2.533326	 7.196106	-24.483720	 5.114911	-91.229230	 83.958310	 178.242500	 37.540020	 64.699430	-45.654000	 8.084999	-0.153427	-1.706741	 22.636030	-12.419920	-8.382569	-11.459120	 8.659940	-24.387950	-5.213937	-0.202400	 3.566957	-1.378229	 35.397820	-2.634230	-1.303596	 7.151311	 5.235878	-2.490208	-19.773800	-7.038470	 87.726860	 87.418960	-176.798800	-72.992670	 61.449900	 75.071240	-8.185281	-0.181453	 1.700852	-35.949390	-10.401450	 18.719450	-0.909953	 25.268850	-62.027650	 5.070519	-0.690904	-9.399550	-2.350882	 35.473990	 5.254307
 0.011985	 0.038612	 1.217397	-179.987200	 0.631648	 0.585643	-9.790040	-9.947576	-178.317500	-1.855208	-40.840310	-7.179677	-166.726700	 82.928200	 153.087200	-2.197248	 46.974050	-0.481352	-0.282511	-8.945249	-179.163400	 6.595354	-39.786460	 9.520609	-176.049600	 83.332760	-174.899800	 2.361896	 32.561370	 0.093075	-8.154555	 5.120493	 1.155119	-1.242406	 11.766100	-2.414298	 7.092647	-25.206350	 5.058170	-91.229170	 83.958340	 178.242500	 35.752080	 63.497070	-43.441090	 7.070031	-0.106131	-2.085213	 21.700320	-13.265840	-8.554595	-11.578540	 8.155554	-24.406830	-5.213937	-0.202400	 3.566957	-1.378229	 35.397820	-2.634230	-1.389536	 7.012429	 5.391098	-2.638410	-20.137210	-7.236234	 87.726820	 87.418960	-176.798800	-67.152120	 60.141720	 67.436980	-7.081060	-0.130751	 2.076056	-35.002510	-11.009400	 18.935680	-0.515153	 25.816740	-61.811750	 5.070519	-0.690904	-9.399550	-2.350882	 35.473990	 5.254307
 0.011719	 0.038209	 1.217817	-179.941100	 0.622399	 0.489582	-9.711745	-10.054170	-178.107700	-1.874583	-40.678270	-7.169305	-167.500100	 83.290740	 153.869700	-2.187057	 47.529350	-0.499678	-0.326455	-9.102310	-179.200500	 6.599911	-39.834750	 9.533095	-175.069900	 83.464150	-175.851500	 2.364443	 32.165290	 0.083972	-8.382373	 5.030487	 1.233447	-1.238406	 11.709590	-2.465920	 7.106893	-25.227450	 5.110614	-91.229390	 83.958370	 178.242700	 37.604110	 64.348880	-45.161690	 6.756561	-0.096211	-2.183491	 21.420270	-13.447630	-8.601606	-11.563390	 8.080346	-24.297970	-5.213937	-0.202400	 3.566957	-1.378229	 35.397820	-2.634230	-1.404605	 6.977534	 5.417918	-2.668595	-20.247730	-7.258560	 87.726970	 87.418890	-176.798900	-68.379380	 60.347690	 68.322710	-6.671499	-0.120144	 2.174214	-34.623300	-11.086590	 18.989380	-0.383293	 26.021490	-61.846570	 5.070519	-0.690904	-9.399550	-2.350882	 35.473990	 5.254307
 0.011464	 0.037712	 1.218217	-179.897800	 0.613051	 0.395382	-9.624936	-10.189990	-177.877100	-1.888413	-40.501500	-7.152968	-168.485500	 83.695880	 154.859000	-2.177236	 48.046550	-0.517040	-0.379121	-9.294405	-179.280000	 6.603909	-39.878300	 9.544281	-173.628000	 83.624680	-177.253300	 2.366742	 31.796380	 0.075551	-8.592288	 4.943801	 1.311558	-1.227866	 11.611660	-2.515267	 7.116236	-25.226440	 5.156779	-91.229290	 83.958310	 178.242600	 39.906850	 65.331800	-47.333170	 6.462749	-0.086506	-2.276791	 21.157350	-13.618050	-8.646499	-11.549180	 8.010298	-24.196620	-5.213937	-0.202400	 3.566957	-1.378229	 35.397820	-2.634230	-1.418645	 6.945051	 5.442855	-2.697073	-20.350570	-7.279598	 87.726970	 87.419040	-176.798900	-70.022510	 60.627280	 69.669990	-6.287873	-0.110193	 2.268266	-34.267960	-11.158700	 19.039130	-0.260140	 26.212120	-61.879490	 5.070519	-0.690904	-9.399550	-2.350882	 35.473990	 5.254307
 0.011453	 0.037120	 1.218649	-179.791600	 0.606106	 0.401494	-9.645769	-10.361540	-177.742100	-1.827091	-40.373050	-7.093798	-169.350400	 84.076730	 155.676900	-2.166036	 48.615820	-0.536512	-0.552761	-9.475804	-179.501500	 6.613520	-39.845900	 9.544341	-171.571700	 83.852710	-179.274800	 2.367777	 31.626510	 0.071694	-8.857133	 4.928384	 1.323098	-1.208290	 11.409390	-2.605109	 7.129221	-25.245620	 5.199364	-91.229200	 83.958370	 178.242500	 42.843200	 66.387430	-50.077390	 6.266739	-0.077405	-2.374774	 21.014020	-13.793060	-8.712108	-11.650790	 7.821740	-24.396980	-5.213937	-0.202400	 3.566957	-1.378229	 35.397820	-2.634230	-1.416502	 6.889960	 5.385427	-2.702608	-20.478920	-7.213277	 87.727110	 87.418890	-176.799100	-72.046330	 60.957470	 71.373860	-6.003252	-0.100000	 2.364995	-33.964220	-11.262910	 19.106040	-0.202380	 26.312350	-61.951840	 5.070519	-0.690904	-9.399550	-2.350882	 35.473990	 5.254307
 0.011514	 0.036462	 1.219096	-179.666900	 0.599764	 0.430301	-9.694745	-10.540820	-177.630800	-1.746816	-40.249190	-7.022979	-170.239700	 84.459390	 156.507200	-2.153664	 49.220710	-0.557635	-0.759559	-9.652944	-179.758500	 6.623575	-39.789970	 9.540069	-169.189800	 84.094120	 178.377400	 2.368573	 31.493270	 0.068673	-9.144152	 4.930621	 1.319478	-1.184921	 11.199940	-2.697676	 7.141987	-25.281710	 5.239019	-91.229220	 83.958340	 178.242500	 46.198820	 67.425250	-53.218230	 6.082365	-0.067489	-2.479144	 20.889040	-13.976960	-8.786312	-11.783000	 7.599865	-24.672390	-5.213937	-0.202400	 3.566957	-1.378229	 35.397820	-2.634230	-1.410795	 6.827567	 5.307399	-2.703507	-20.618180	-7.125021	 87.726970	 87.419040	-176.798900	-74.286740	 61.275310	 73.302650	-5.726547	-0.089605	 2.469249	-33.657050	-11.378500	 19.180200	-0.156500	 26.396810	-62.036010	 5.070519	-0.690904	-9.399550	-2.350882	 35.473990	 5.254307
 0.011982	 0.034849	 1.220310	-179.296500	 0.593964	 0.542078	-9.949732	-10.825570	-177.588000	-1.539986	-40.058210	-6.859704	-171.059700	 85.114570	 157.202400	-2.114306	 50.999290	-0.622541	-1.291951	-9.872287	 179.773000	 6.655293	-39.635440	 9.530737	-165.256100	 84.536750	 174.461400	 2.370874	 31.101490	 0.059825	-10.007570	 4.967990	 1.271698	-1.156282	 11.155120	-2.844380	 7.184865	-25.656310	 5.325000	-91.229250	 83.958310	 178.242500	 58.887260	 70.279860	-54.807720	 4.228714	-7.423425	-22.504860	 20.508220	-14.518370	-9.012932	-12.176720	 6.952754	-25.482640	-5.213937	-0.202400	 3.566957	-1.378229	 35.397820	-2.634230	-1.394551	 6.644037	 5.078053	-2.706119	-21.027400	-6.866159	 87.726630	 87.418960	-176.798600	-83.736710	 62.369960	 73.141510	-3.898289	-6.965834	 18.989010	-32.741000	-11.716190	 19.401480	-0.020824	 26.644440	-62.284240	 5.070519	-0.690904	-9.399550	-2.350882	 35.473990	 5.254307
 0.011956	 0.031985	 1.221581	-178.771500	 0.764927	 0.257698	-10.514570	-11.174010	-177.389600	-1.254171	-39.889070	-6.648921	-168.969700	 85.510310	 154.982500	-2.089560	 52.019460	-0.661812	-1.622230	-10.203480	 179.950300	 6.567479	-39.853650	 9.515191	-166.048400	 84.634220	 175.317300	 2.375096	 30.343180	 0.042858	-11.121840	 4.975551	 1.476427	-1.279693	 12.071700	-2.676199	 7.140116	-26.742240	 5.386152	-91.229300	 83.958270	 178.242600	 59.240750	 69.720990	-53.665950	 3.049578	-7.353699	-24.175670	 19.737650	-15.196200	-9.316830	-12.392010	 6.575342	-25.895550	-5.213937	-0.202400	 3.566957	-1.378229	 35.397820	-2.634230	-1.490837	 6.551503	 5.063197	-2.927979	-21.672210	-7.083854	 87.727060	 87.418890	-176.799000	-85.924940	 62.207240	 75.364120	-3.010801	-6.637019	 19.510020	-31.832200	-12.275240	 19.697470	-0.252955	 26.319540	-62.377140	 5.070519	-0.690904	-9.399550	-2.350882	 35.473990	 5.254307
 0.013571	 0.027105	 1.223039	-177.763300	 1.315255	 0.349893	-11.351460	-12.139080	-177.852200	-0.498499	-40.087330	-6.180921	-161.100300	 85.829650	 146.738000	-1.984556	 55.704240	-0.818569	-2.401233	-10.855400	 179.524100	 6.620994	-39.837740	 9.547718	-164.394000	 84.382350	 173.709900	 2.384145	 28.504110	 0.002494	-12.672970	 5.047037	 1.411174	-1.492484	 13.144500	-2.509480	 7.027026	-28.451570	 5.367461	-91.229210	 83.958340	 178.242500	 58.784970	 68.679890	-51.364210	 1.451205	-6.971910	-25.894620	 18.668070	-15.895010	-9.764825	-11.835140	 7.931008	-25.101420	-5.213937	-0.202400	 3.566957	-1.378229	 35.397820	-2.634230	-1.695486	 6.954209	 4.894325	-3.206918	-22.810310	-7.129479	 87.726860	 87.418820	-176.798800	-90.120890	 62.316020	 79.238010	-1.735260	-6.790607	 21.754880	-30.621160	-13.029400	 19.953440	-0.786383	 25.500620	-62.245490	 5.070519	-0.690904	-9.399550	-2.350882	 35.473990	 5.254307
 0.015983	 0.022306	 1.224568	-176.636300	 2.331090	 0.095856	-12.499750	-13.526280	-178.077100	 0.239468	-40.128000	-5.703288	-151.815400	 86.317090	 137.099600	-1.914363	 57.727970	-0.916741	-3.814137	-12.021830	 179.541300	 6.890692	-39.919930	 9.743836	-162.631500	 84.258810	 171.840600	 2.385149	 28.277340	-0.002407	-14.254460	 4.927872	 1.694469	-1.610257	 13.499030	-2.398750	 6.846080	-30.123380	 5.453424	-91.229160	 83.958310	 178.242500	 59.681530	 68.564850	-51.733360	 1.002922	-6.388337	-25.934020	 18.141230	-17.127630	-10.091560	-11.522010	 9.140143	-24.987920	-5.213937	-0.202400	 3.566957	-1.378229	 35.397820	-2.634230	-1.943716	 7.460549	 5.109272	-3.726475	-23.537990	-8.105972	 87.726780	 87.418820	-176.798700	-90.439920	 62.564830	 79.922100	 0.140599	-5.319064	 20.776620	-28.452500	-13.683290	 19.982710	-1.146573	 25.128060	-63.005330	 5.070519	-0.690904	-9.399550	-2.350882	 35.473990	 5.254307
 0.017499	 0.021344	 1.224953	-176.387300	 2.444245	 0.171374	-12.690750	-13.677540	-178.302300	 0.322039	-40.193260	-5.656929	-149.291800	 86.423190	 134.556700	-1.881345	 58.586780	-0.961551	-3.979146	-12.057200	 179.344800	 6.972454	-39.823990	 9.779222	-162.435800	 83.987480	 171.618900	 2.385759	 28.136070	-0.005456	-14.783530	 4.956190	 1.670846	-1.493459	 13.821580	-2.328662	 6.679426	-30.684130	 5.426507	-91.229200	 83.958340	 178.242500	 60.421800	 68.660310	-52.435860	 0.622856	-6.070407	-26.025990	 17.692500	-17.566540	-10.223800	-11.446820	 9.356032	-24.900010	-5.213937	-0.202400	 3.566957	-1.378229	 35.397820	-2.634230	-2.061962	 7.932292	 5.510735	-4.038381	-24.039710	-8.864983	 87.726620	 87.418960	-176.798600	-89.683400	 62.367160	 79.585950	 0.599035	-4.614858	 19.732330	-28.081570	-13.914010	 20.203550	-1.108716	 25.146030	-62.830300	 5.070519	-0.690904	-9.399550	-2.350882	 35.473990	 5.254307
 0.018852	 0.019625	 1.225529	-176.188700	 3.010223	 0.189654	-12.806550	-14.302990	-178.555200	 0.304682	-40.178190	-5.666529	-145.952600	 86.614470	 131.288200	-1.862246	 59.059940	-0.987121	-4.132992	-12.647270	 179.247700	 7.111483	-39.771290	 9.861313	-161.327600	 83.853090	 170.463400	 2.382646	 28.832920	 0.009640	-15.481780	 4.478146	 1.591991	-1.330224	 14.166050	-2.070350	 6.150092	-31.223770	 5.109305	-91.229270	 83.958240	 178.242600	 62.030930	 69.387080	-52.391160	-0.372163	-6.186707	-28.621420	 16.623720	-18.199590	-10.291300	-11.364370	 9.506963	-24.732480	-5.213937	-0.202400	 3.566957	-1.378229	 35.397820	-2.634230	-2.182744	 8.059473	 5.839627	-4.356290	-24.089070	-9.590567	 87.726910	 87.418890	-176.798900	-88.850830	 62.008670	 79.508390	 1.104320	-3.702117	 18.287490	-27.780740	-14.203330	 20.585370	-1.468643	 24.477470	-62.253940	 5.070519	-0.690904	-9.399550	-2.350882	 35.473990	 5.254307
 0.019497	 0.018962	 1.225930	-176.142700	 3.346230	 0.195397	-12.912620	-14.587280	-178.653600	 0.365797	-40.072750	-5.614369	-144.676500	 86.693280	 129.994500	-1.820609	 60.037060	-1.042077	-4.143353	-12.960310	 179.273300	 7.166467	-39.687930	 9.881011	-161.369600	 83.797290	 170.464900	 2.383169	 28.719230	 0.007165	-16.036780	 4.310977	 1.554119	-1.154857	 14.115410	-1.926061	 5.568527	-31.535350	 4.765997	-91.229220	 83.958340	 178.242500	 64.066930	 70.319880	-52.080410	-1.990130	-6.217084	-32.220330	 15.025660	-18.572210	-10.286160	-11.342760	 9.541348	-24.684120	-5.213937	-0.202400	 3.566957	-1.378229	 35.397820	-2.634230	-2.239105	 7.727860	 5.832670	-4.483142	-23.591820	-9.743201	 87.727270	 87.418960	-176.799200	-88.321850	 61.547460	 79.565490	 1.571259	-2.953902	 17.110400	-27.579260	-14.316150	 20.941800	-1.701050	 24.049970	-61.941090	 5.070519	-0.690904	-9.399550	-2.350882	 35.473990	 5.254307
